<mxfile host="65bd71144e">
    <diagram name="Page-1" id="Q_9ESIQ_pW7NMQ1Ib5ru">
        <mxGraphModel dx="683" dy="436" grid="1" gridSize="10" guides="1" tooltips="1" connect="1" arrows="1" fold="1" page="1" pageScale="1" pageWidth="850" pageHeight="1100" math="0" shadow="0">
            <root>
                <mxCell id="0"/>
                <mxCell id="1" parent="0"/>
                <mxCell id="9URxWOYg4oVvzzbTAjZv-1" value="Users" style="rounded=0;whiteSpace=wrap;html=1;labelBackgroundColor=none;fillColor=#182E3E;strokeColor=#FFFFFF;fontColor=#FFFFFF;" parent="1" vertex="1">
                    <mxGeometry x="60" y="50" width="120" height="30" as="geometry"/>
                </mxCell>
                <mxCell id="9URxWOYg4oVvzzbTAjZv-2" value="Posts" style="rounded=0;whiteSpace=wrap;html=1;labelBackgroundColor=none;fillColor=#182E3E;strokeColor=#FFFFFF;fontColor=#FFFFFF;" parent="1" vertex="1">
                    <mxGeometry x="60" y="210" width="120" height="30" as="geometry"/>
                </mxCell>
                <mxCell id="9URxWOYg4oVvzzbTAjZv-3" value="Comments" style="rounded=0;whiteSpace=wrap;html=1;labelBackgroundColor=none;fillColor=#182E3E;strokeColor=#FFFFFF;fontColor=#FFFFFF;" parent="1" vertex="1">
                    <mxGeometry x="160" y="350" width="120" height="30" as="geometry"/>
                </mxCell>
                <mxCell id="9URxWOYg4oVvzzbTAjZv-5" value="subreddits_users" style="rounded=0;whiteSpace=wrap;html=1;labelBackgroundColor=none;fillColor=#182E3E;strokeColor=#FFFFFF;fontColor=#FFFFFF;" parent="1" vertex="1">
                    <mxGeometry x="360" y="210" width="120" height="30" as="geometry"/>
                </mxCell>
                <mxCell id="9URxWOYg4oVvzzbTAjZv-6" value="Subreddits" style="rounded=0;whiteSpace=wrap;html=1;labelBackgroundColor=none;fillColor=#182E3E;strokeColor=#FFFFFF;fontColor=#FFFFFF;" parent="1" vertex="1">
                    <mxGeometry x="320" y="70" width="120" height="30" as="geometry"/>
                </mxCell>
                <mxCell id="9URxWOYg4oVvzzbTAjZv-8" value="id" style="rounded=1;whiteSpace=wrap;html=1;fillColor=#f5f5f5;fontColor=#333333;strokeColor=#666666;" parent="1" vertex="1">
                    <mxGeometry x="60" y="80" width="120" height="60" as="geometry"/>
                </mxCell>
                <mxCell id="9URxWOYg4oVvzzbTAjZv-9" value="id&lt;br&gt;user_id" style="rounded=1;whiteSpace=wrap;html=1;strokeColor=#666666;fontColor=#333333;fillColor=#f5f5f5;" parent="1" vertex="1">
                    <mxGeometry x="60" y="240" width="120" height="60" as="geometry"/>
                </mxCell>
                <mxCell id="9URxWOYg4oVvzzbTAjZv-10" value="id&lt;br&gt;post_id&lt;br&gt;user_id" style="rounded=1;whiteSpace=wrap;html=1;strokeColor=#666666;fontColor=#333333;fillColor=#f5f5f5;" parent="1" vertex="1">
                    <mxGeometry x="160" y="380" width="120" height="60" as="geometry"/>
                </mxCell>
                <mxCell id="9URxWOYg4oVvzzbTAjZv-14" value="id" style="rounded=1;whiteSpace=wrap;html=1;strokeColor=#666666;fontColor=#333333;fillColor=#f5f5f5;" parent="1" vertex="1">
                    <mxGeometry x="320" y="100" width="120" height="60" as="geometry"/>
                </mxCell>
                <mxCell id="9URxWOYg4oVvzzbTAjZv-15" value="user_id&lt;br&gt;subreddit_id" style="rounded=1;whiteSpace=wrap;html=1;strokeColor=#666666;fontColor=#333333;fillColor=#f5f5f5;" parent="1" vertex="1">
                    <mxGeometry x="360" y="240" width="120" height="60" as="geometry"/>
                </mxCell>
                <mxCell id="9URxWOYg4oVvzzbTAjZv-16" value="Posts" style="rounded=0;whiteSpace=wrap;html=1;labelBackgroundColor=none;fillColor=#182E3E;strokeColor=#FFFFFF;fontColor=#FFFFFF;" parent="1" vertex="1">
                    <mxGeometry x="580" y="110" width="120" height="30" as="geometry"/>
                </mxCell>
                <mxCell id="9URxWOYg4oVvzzbTAjZv-17" value="id&lt;br&gt;user_id&lt;br&gt;subreddit_id" style="rounded=1;whiteSpace=wrap;html=1;strokeColor=#666666;fontColor=#333333;fillColor=#f5f5f5;" parent="1" vertex="1">
                    <mxGeometry x="580" y="140" width="120" height="60" as="geometry"/>
                </mxCell>
                <mxCell id="9URxWOYg4oVvzzbTAjZv-23" value="" style="endArrow=classic;startArrow=classic;html=1;rounded=0;strokeColor=#b85450;entryX=1;entryY=0.5;entryDx=0;entryDy=0;exitX=1;exitY=0.5;exitDx=0;exitDy=0;fillColor=#f8cecc;gradientColor=#ea6b66;" parent="1" source="9URxWOYg4oVvzzbTAjZv-9" target="9URxWOYg4oVvzzbTAjZv-8" edge="1">
                    <mxGeometry width="50" height="50" relative="1" as="geometry">
                        <mxPoint x="190" y="260" as="sourcePoint"/>
                        <mxPoint x="190" y="110" as="targetPoint"/>
                        <Array as="points">
                            <mxPoint x="220" y="180"/>
                        </Array>
                    </mxGeometry>
                </mxCell>
                <mxCell id="9URxWOYg4oVvzzbTAjZv-24" value="" style="endArrow=classic;html=1;rounded=0;strokeColor=#d79b00;exitX=0;exitY=0.5;exitDx=0;exitDy=0;entryX=0;entryY=0.5;entryDx=0;entryDy=0;fillColor=#ffcd28;gradientColor=#ffa500;" parent="1" source="9URxWOYg4oVvzzbTAjZv-9" target="9URxWOYg4oVvzzbTAjZv-8" edge="1">
                    <mxGeometry width="50" height="50" relative="1" as="geometry">
                        <mxPoint x="50" y="260" as="sourcePoint"/>
                        <mxPoint x="50" y="110" as="targetPoint"/>
                        <Array as="points">
                            <mxPoint x="20" y="190"/>
                        </Array>
                    </mxGeometry>
                </mxCell>
                <mxCell id="9URxWOYg4oVvzzbTAjZv-25" value="" style="endArrow=classic;startArrow=classic;html=1;rounded=0;strokeColor=#b85450;exitX=0;exitY=0.5;exitDx=0;exitDy=0;entryX=0.2;entryY=1.008;entryDx=0;entryDy=0;entryPerimeter=0;fillColor=#f8cecc;gradientColor=#ea6b66;" parent="1" source="9URxWOYg4oVvzzbTAjZv-10" target="9URxWOYg4oVvzzbTAjZv-9" edge="1">
                    <mxGeometry width="50" height="50" relative="1" as="geometry">
                        <mxPoint x="150" y="410" as="sourcePoint"/>
                        <mxPoint x="70" y="310" as="targetPoint"/>
                    </mxGeometry>
                </mxCell>
                <mxCell id="9URxWOYg4oVvzzbTAjZv-26" value="" style="endArrow=classic;html=1;rounded=0;strokeColor=#d79b00;exitX=0.5;exitY=0;exitDx=0;exitDy=0;entryX=1;entryY=1;entryDx=0;entryDy=0;fillColor=#ffcd28;gradientColor=#ffa500;" parent="1" source="9URxWOYg4oVvzzbTAjZv-3" target="9URxWOYg4oVvzzbTAjZv-9" edge="1">
                    <mxGeometry width="50" height="50" relative="1" as="geometry">
                        <mxPoint x="220" y="340" as="sourcePoint"/>
                        <mxPoint x="170" y="310" as="targetPoint"/>
                    </mxGeometry>
                </mxCell>
                <mxCell id="9URxWOYg4oVvzzbTAjZv-27" value="" style="endArrow=classic;html=1;rounded=0;strokeColor=#d79b00;exitX=1;exitY=0;exitDx=0;exitDy=0;entryX=0.992;entryY=0.125;entryDx=0;entryDy=0;entryPerimeter=0;fillColor=#ffcd28;gradientColor=#ffa500;" parent="1" source="9URxWOYg4oVvzzbTAjZv-3" target="9URxWOYg4oVvzzbTAjZv-8" edge="1">
                    <mxGeometry width="50" height="50" relative="1" as="geometry">
                        <mxPoint x="400" y="320" as="sourcePoint"/>
                        <mxPoint x="260" y="160" as="targetPoint"/>
                        <Array as="points">
                            <mxPoint x="260" y="180"/>
                        </Array>
                    </mxGeometry>
                </mxCell>
                <mxCell id="9URxWOYg4oVvzzbTAjZv-28" value="" style="endArrow=classic;startArrow=classic;html=1;rounded=0;strokeColor=#b85450;entryX=0;entryY=0;entryDx=0;entryDy=0;exitX=1;exitY=0;exitDx=0;exitDy=0;fillColor=#f8cecc;gradientColor=#ea6b66;" parent="1" source="9URxWOYg4oVvzzbTAjZv-1" target="9URxWOYg4oVvzzbTAjZv-6" edge="1">
                    <mxGeometry width="50" height="50" relative="1" as="geometry">
                        <mxPoint x="210" y="50" as="sourcePoint"/>
                        <mxPoint x="450" y="270" as="targetPoint"/>
                    </mxGeometry>
                </mxCell>
                <mxCell id="9URxWOYg4oVvzzbTAjZv-29" value="" style="endArrow=classic;startArrow=classic;html=1;rounded=0;strokeColor=#d79b00;entryX=0;entryY=0.5;entryDx=0;entryDy=0;exitX=1;exitY=0.5;exitDx=0;exitDy=0;fillColor=#ffcd28;gradientColor=#ffa500;" parent="1" source="9URxWOYg4oVvzzbTAjZv-1" target="9URxWOYg4oVvzzbTAjZv-6" edge="1">
                    <mxGeometry width="50" height="50" relative="1" as="geometry">
                        <mxPoint x="190" y="60" as="sourcePoint"/>
                        <mxPoint x="370" y="60" as="targetPoint"/>
                    </mxGeometry>
                </mxCell>
                <mxCell id="9URxWOYg4oVvzzbTAjZv-30" value="" style="endArrow=classic;html=1;rounded=0;strokeColor=#d79b00;exitX=0;exitY=1;exitDx=0;exitDy=0;entryX=1;entryY=0.75;entryDx=0;entryDy=0;fillColor=#ffcd28;gradientColor=#ffa500;" parent="1" source="9URxWOYg4oVvzzbTAjZv-16" target="9URxWOYg4oVvzzbTAjZv-6" edge="1">
                    <mxGeometry width="50" height="50" relative="1" as="geometry">
                        <mxPoint x="400" y="320" as="sourcePoint"/>
                        <mxPoint x="460" y="160" as="targetPoint"/>
                    </mxGeometry>
                </mxCell>
                <mxCell id="9URxWOYg4oVvzzbTAjZv-31" value="" style="endArrow=classic;startArrow=classic;html=1;rounded=0;strokeColor=#b85450;exitX=1;exitY=1;exitDx=0;exitDy=0;entryX=0;entryY=1;entryDx=0;entryDy=0;fillColor=#f8cecc;gradientColor=#ea6b66;" parent="1" source="9URxWOYg4oVvzzbTAjZv-14" target="9URxWOYg4oVvzzbTAjZv-17" edge="1">
                    <mxGeometry width="50" height="50" relative="1" as="geometry">
                        <mxPoint x="400" y="320" as="sourcePoint"/>
                        <mxPoint x="450" y="270" as="targetPoint"/>
                    </mxGeometry>
                </mxCell>
            </root>
        </mxGraphModel>
    </diagram>
</mxfile>